<?xml version="1.0" encoding="utf-8"?>
<!-- Generator: Adobe Illustrator 27.0.1, SVG Export Plug-In . SVG Version: 6.00 Build 0)  -->
<svg version="1.1" id="Layer_1" xmlns="http://www.w3.org/2000/svg" xmlns:xlink="http://www.w3.org/1999/xlink" x="0px" y="0px"
	 viewBox="0 0 1191 167" style="enable-background:new 0 0 1191 167;" xml:space="preserve">
<style type="text/css">
	.st0{fill:#00592D;}
	.st1{fill:#4BC6EC;}
	.st2{fill:#F69220;}
	.st3{fill:#A3CF62;}
	.st4{fill:#37AC4A;}
	.st5{fill:#008551;}
	.st6{fill:#414141;}
</style>
<image style="display:none;overflow:visible;" width="210" height="31" xlink:href="3EDFD199.jpg"  transform="matrix(5.3143 0 0 5.3143 0 2)">
</image>
<g>
	<g>
		<g>
			<path class="st0" d="M220.8,85.4c-7.4,0-14.7,0.3-19,0.4l-0.3,0v59.3h0.3c1,0,2,0.1,3.1,0.1c4.1,0.2,8.5,0.3,13.3,0.3
				c20.5,0,32.8-11.6,32.8-31.1C251,95.2,240.8,85.4,220.8,85.4 M213.4,95.8c1.8-0.2,4-0.2,6.6-0.2c12.3,0,18.1,6.3,18.1,19.8
				c0,12.6-6.8,19.9-18.8,19.9c-2,0-4.3-0.1-5.9-0.4V95.8z"/>
			<path class="st0" d="M278.4,100.4c-13.2,0-22.4,9.7-22.4,23.6c0,14.5,7.1,22.2,20.5,22.2c13,0,22.5-10,22.5-23.7
				C299,108.3,291.7,100.4,278.4,100.4 M277.5,136c-6.2,0-9.4-4.4-9.4-13.1c0-9.2,5.2-12.4,9.5-12.4c6.2,0,9.2,4.1,9.2,12.6
				C286.8,131.1,283.2,136,277.5,136"/>
			<path class="st0" d="M376.7,100.5c-14.7,0-23.9,9.6-23.9,25.1c0,13.3,5.8,20.6,16.4,20.6c5.3,0,9.9-2.5,12.4-6.9
				c-0.2,1.7-0.2,3.2-0.2,4.9v0.8c0,7.3-3.6,10.5-12.1,10.5c-3.9,0-8.8-1-12.8-2.5l-0.4-0.1l-0.9,11l0.3,0.1
				c2.9,0.8,7.7,1.7,13.3,1.7c20,0,24.2-11.2,24.2-20.6v-43l-0.3,0C387.3,100.9,382.2,100.5,376.7,100.5 M372.2,136.3
				c-4.8,0-7.1-3.8-7.1-11.8c0-9.5,3.6-14.4,10.6-14.4c2.2,0,3.9,0.2,5.5,0.6v11.7C381.2,129.3,378.2,136.3,372.2,136.3"/>
			<path class="st0" d="M449.6,118.5c-1.3,4.2-2.1,8-2.9,11.5c-0.8-3.7-1.8-7.3-3.2-12l-5.5-16.6h-11.1l-5.3,17.2
				c-1.2,3.9-2.2,7.5-2.9,11.3c-0.8-3-1.6-6-2.3-8.9c-0.3-1-0.5-2-0.8-3l-4.7-16.6H398l13.4,43.8l0.1,0.2h12L429,127
				c0.9-2.8,1.8-6,2.7-9.7c0.6,3,1.3,5.8,2.2,8.5l6.3,19.5h12.6l13.8-44h-12.1L449.6,118.5z"/>
			<path class="st0" d="M497.3,100.3c-6,0-11.4,2.5-14.3,6.9c0.4-2.7,0.5-5.9,0.5-7.3v-19h-11.9v64.4h11.9V124
				c0-7.5,4.3-13.7,9.7-13.7c3.6,0,5.6,2,5.6,6.9v28h11.8v-30.7C510.5,108.1,508.2,100.3,497.3,100.3"/>
			<path class="st0" d="M536.3,100.3c-5.4,0-11.4,1-16.5,2.7l-0.2,0.1l1.1,10.1l0.5-0.2c3.6-2,9.1-3.4,13.3-3.4
				c6.1,0,8.6,1.9,8.6,6.6v1.8c-16.3,0.1-26.4,6.5-26.4,16.4c0,7.3,5.1,11.8,13.4,11.8c6.1,0,11.4-2.8,14.1-7
				c-0.2,1.6-0.3,3.5-0.3,5.8v0.3h11.5v-29.5C555.5,105,549.7,100.3,536.3,100.3 M533.6,137c-3.1,0-5.1-1.6-5.1-4.3
				c0-4.4,4.8-6.7,14.5-6.8v0.7C543,131.5,539.4,137,533.6,137"/>
			<path class="st0" d="M332.4,100.3c-6.1,0-11.8,2.7-14.8,7.6c0.3-2,0.4-4.6,0.4-6.4v-0.3l-0.3,0c-1.2,0-2.4,0-3.6,0
				c-4,0-8.1,0.2-11.8,0.6l-0.3,0v8.1l0.3,0c1.7,0.1,3.3,0.3,4.6,0.6v34.8h11.7V124c0-7.5,4.4-13.7,9.8-13.7c3.5,0,5.5,2,5.5,6.9v28
				h11.7v-30.7C345.6,108.1,343.3,100.3,332.4,100.3"/>
			<path class="st0" d="M227.7,39.2c-1.5,4.5-2.5,7.8-3.4,11.7c-1.1-4-2.3-7.8-3.4-11L209.4,5.3l0-0.1h-13l20.8,59.4l0.1,0.1h13.5
				l20.9-59.5h-12.2L227.7,39.2z"/>
			<path class="st0" d="M360.7,31.8L360.7,31.8h-22.8v9.8h11v12.2c-2.2,0.7-4.6,1-7.4,1c-11.9,0-18.7-7.2-18.7-19.8
				c0-12.7,7.6-20,19.9-20c5.2,0,10.7,1.1,15.7,3l0.3,0.1L360.6,7l-0.2,0c-5.8-1.7-11.5-2.6-16.9-2.6c-10,0-18.5,2.6-24.5,8.5
				c-5.9,5.8-9,13.8-9,23.1c0,18.4,11.3,29.5,30.3,29.5c7.2,0,14.5-1.3,20.4-3.7l0.1,0L360.7,31.8L360.7,31.8z"/>
			<path class="st0" d="M302.3,21.4c0-12.2-8.5-16.5-21.7-16.5c-13.2,0-22.9,0.4-22.9,0.4v59.4h11.9V41.8c0,0,2.9,0.1,7.1,0.2
				L292,64.7h14.3l-17.5-24.3C295.6,37.9,302.3,32.5,302.3,21.4 M269.6,14.5L269.6,14.5c0,0,3.5-0.3,9.9-0.3
				c7.2,0,10.8,2.5,10.8,8.3c0,5.6-4.2,9.7-11.2,9.7c-7,0-9.5-0.2-9.5-0.2V14.5z"/>
			<polygon class="st1" points="152.3,44.4 11.4,36.8 8.3,5.7 145.2,7.3 			"/>
			<polygon class="st2" points="145.9,92.6 150,49.9 0,48 8,102 23.8,101.7 23.3,96.4 			"/>
			<polygon class="st3" points="165.4,121.3 164.4,92.4 145.9,92.6 144.6,100.1 23.8,101.7 25.5,121.5 			"/>
			<polygon class="st4" points="145.9,92.6 23.3,96.4 23.8,101.7 144.6,100 			"/>
			<polygon class="st5" points="137.6,129 137.2,121.3 25.4,121.5 25.9,124.9 			"/>
			<polygon class="st4" points="148.4,121.3 137.2,121.3 137.6,129 25.9,124.9 25.4,121.5 25.3,121.5 4.9,121.5 7.2,145.8 
				149.8,144.4 			"/>
		</g>
		<rect x="637.3" y="1.5" class="st0" width="5.7" height="159.5"/>
	</g>
	<g>
		<path class="st6" d="M725,38.7h34.4c7.8,0,13.7,0.6,17.7,1.8c5.5,1.6,10.1,4.5,14,8.6c3.9,4.1,6.9,9.1,8.9,15.1
			c2,6,3.1,13.3,3.1,22c0,7.7-1,14.3-2.9,19.8c-2.3,6.8-5.7,12.3-10,16.5c-3.3,3.2-7.7,5.7-13.2,7.4c-4.2,1.3-9.7,2-16.7,2H725V38.7
			z M743.8,54.5v61.7h14c5.3,0,9-0.3,11.4-0.9c3.1-0.8,5.6-2.1,7.6-3.9c2-1.8,3.7-4.8,4.9-9c1.3-4.2,1.9-9.9,1.9-17.1
			c0-7.2-0.6-12.7-1.9-16.6c-1.3-3.9-3.1-6.9-5.3-9s-5.2-3.6-8.7-4.4c-2.6-0.6-7.8-0.9-15.4-0.9H743.8z"/>
		<path class="st6" d="M816.9,107V89.2H852V107H816.9z"/>
		<path class="st6" d="M857.7,101.6l18.3-1.8c1.1,6.1,3.3,10.7,6.7,13.5c3.4,2.9,7.9,4.3,13.6,4.3c6.1,0,10.6-1.3,13.7-3.8
			c3.1-2.6,4.6-5.6,4.6-9c0-2.2-0.6-4.1-1.9-5.6c-1.3-1.5-3.5-2.9-6.8-4c-2.2-0.8-7.2-2.1-15.1-4.1c-10.1-2.5-17.2-5.6-21.2-9.2
			c-5.7-5.1-8.6-11.4-8.6-18.8c0-4.7,1.3-9.2,4-13.3c2.7-4.1,6.6-7.3,11.6-9.4c5.1-2.2,11.2-3.2,18.3-3.2c11.7,0,20.5,2.6,26.4,7.7
			c5.9,5.1,9,12,9.3,20.5L912,66.2c-0.8-4.8-2.5-8.2-5.2-10.3c-2.6-2.1-6.6-3.1-11.9-3.1c-5.5,0-9.7,1.1-12.8,3.4
			c-2,1.4-3,3.4-3,5.8c0,2.2,0.9,4.1,2.8,5.7c2.4,2,8.1,4.1,17.3,6.2c9.2,2.2,15.9,4.4,20.3,6.7c4.4,2.3,7.8,5.5,10.3,9.5
			c2.5,4,3.7,9,3.7,14.8c0,5.3-1.5,10.3-4.5,15c-3,4.7-7.2,8.1-12.6,10.4c-5.4,2.3-12.2,3.4-20.3,3.4c-11.8,0-20.8-2.7-27.1-8.2
			C862.7,119.9,858.9,112,857.7,101.6z"/>
		<path class="st6" d="M962.5,85l-16.2-2.9c1.8-6.5,5-11.4,9.4-14.5c4.4-3.1,11.1-4.7,19.8-4.7c8,0,13.9,0.9,17.8,2.8
			c3.9,1.9,6.6,4.3,8.2,7.2c1.6,2.9,2.4,8.2,2.4,16l-0.2,20.8c0,5.9,0.3,10.3,0.9,13.1c0.6,2.8,1.6,5.8,3.2,9.1h-17.7
			c-0.5-1.2-1-2.9-1.7-5.3c-0.3-1.1-0.5-1.8-0.6-2.1c-3.1,3-6.3,5.2-9.8,6.7s-7.2,2.2-11.1,2.2c-7,0-12.4-1.9-16.4-5.7
			c-4-3.8-6-8.5-6-14.3c0-3.8,0.9-7.2,2.7-10.2c1.8-3,4.4-5.3,7.7-6.9c3.3-1.6,8-3,14.2-4.2c8.3-1.6,14.1-3,17.4-4.4v-1.8
			c0-3.4-0.8-5.9-2.5-7.3c-1.7-1.5-4.9-2.2-9.6-2.2c-3.2,0-5.7,0.6-7.4,1.9C965,79.7,963.6,81.9,962.5,85z M986.4,99.5
			c-2.3,0.8-5.9,1.7-10.9,2.7c-5,1.1-8.2,2.1-9.7,3.1c-2.3,1.7-3.5,3.8-3.5,6.3c0,2.5,0.9,4.7,2.8,6.5c1.9,1.8,4.2,2.7,7.1,2.7
			c3.2,0,6.3-1.1,9.2-3.2c2.2-1.6,3.6-3.6,4.3-5.9c0.5-1.5,0.7-4.4,0.7-8.7V99.5z"/>
		<path class="st6" d="M1021.5,131.9V38.7h17.9v93.2H1021.5z"/>
		<path class="st6" d="M1096.8,110.4l17.8,3c-2.3,6.5-5.9,11.5-10.8,14.9c-4.9,3.4-11.1,5.1-18.5,5.1c-11.7,0-20.4-3.8-26.1-11.5
			c-4.4-6.1-6.7-13.9-6.7-23.3c0-11.2,2.9-19.9,8.8-26.3c5.8-6.3,13.2-9.5,22.2-9.5c10,0,18,3.3,23.8,9.9c5.8,6.6,8.6,16.8,8.3,30.5
			h-44.7c0.1,5.3,1.6,9.4,4.3,12.4s6.2,4.4,10.3,4.4c2.8,0,5.1-0.8,7.1-2.3C1094.4,116.3,1095.8,113.8,1096.8,110.4z M1097.8,92.4
			c-0.1-5.2-1.5-9.1-4-11.8c-2.5-2.7-5.6-4-9.3-4c-3.9,0-7.1,1.4-9.7,4.3c-2.5,2.8-3.8,6.7-3.8,11.6H1097.8z"/>
		<path class="st6" d="M1123.8,112.6l17.9-2.7c0.8,3.5,2.3,6.1,4.6,7.9c2.3,1.8,5.6,2.7,9.8,2.7c4.6,0,8.1-0.8,10.4-2.5
			c1.6-1.2,2.4-2.8,2.4-4.8c0-1.4-0.4-2.5-1.3-3.4c-0.9-0.8-2.9-1.6-6-2.4c-14.4-3.2-23.5-6.1-27.4-8.7c-5.3-3.6-8-8.7-8-15.2
			c0-5.8,2.3-10.8,6.9-14.7c4.6-4,11.8-6,21.5-6c9.2,0,16.1,1.5,20.6,4.5c4.5,3,7.6,7.5,9.3,13.3l-16.8,3.1c-0.7-2.6-2.1-4.6-4.1-6
			s-4.9-2.1-8.6-2.1c-4.7,0-8.1,0.7-10.1,2c-1.4,0.9-2,2.1-2,3.6c0,1.3,0.6,2.4,1.8,3.2c1.6,1.2,7.2,2.9,16.7,5
			c9.5,2.2,16.2,4.8,19.9,7.9c3.7,3.2,5.6,7.6,5.6,13.3c0,6.2-2.6,11.5-7.8,16c-5.2,4.4-12.8,6.7-22.9,6.7c-9.2,0-16.5-1.9-21.8-5.6
			C1129,124.1,1125.5,119,1123.8,112.6z"/>
	</g>
</g>
</svg>
